<?xml version="1.0" encoding="UTF-8"?>
<svg version="1.1" xmlns="http://www.w3.org/2000/svg" width="256" height="256">
<path d="M0 0 C7.19399841 4.87058989 8.89417026 15.32776171 11.2265625 23.171875 C11.98627203 25.63473526 12.74805337 28.09695722 13.51171875 30.55859375 C14.70444018 34.41258217 15.88486275 38.26922405 17.02490234 42.13916016 C18.13216193 45.89304807 19.30321444 49.62559756 20.4765625 53.359375 C20.80612946 54.51669128 21.13569641 55.67400757 21.47525024 56.86639404 C23.27407657 62.71192061 23.27407657 62.71192061 27.37182617 67.00598145 C29.97289134 68.08336635 32.5205488 68.81385519 35.25 69.5 C37.09904155 70.11074447 38.94503237 70.73079166 40.78808594 71.359375 C42.76922623 71.99258244 44.75136464 72.62267359 46.734375 73.25 C48.90766007 73.94758033 51.08083393 74.6455072 53.25390625 75.34375 C56.63856824 76.42715701 60.024086 77.50763913 63.41162109 78.58203125 C66.70943096 79.62971092 70.00332882 80.68900533 73.296875 81.75 C74.30635193 82.06678711 75.31582886 82.38357422 76.355896 82.70996094 C88.24598052 86.56077143 88.24598052 86.56077143 92.125 92.25 C93.97649749 97.59877053 94.20612868 102.15216847 91.75 107.25 C86.87941011 114.44399841 76.42223829 116.14417026 68.578125 118.4765625 C66.11526474 119.23627203 63.65304278 119.99805337 61.19140625 120.76171875 C57.33741783 121.95444018 53.48077595 123.13486275 49.61083984 124.27490234 C45.85695193 125.38216193 42.12440244 126.55321444 38.390625 127.7265625 C37.23330872 128.05612946 36.07599243 128.38569641 34.88360596 128.72525024 C29.03807939 130.52407657 29.03807939 130.52407657 24.74401855 134.62182617 C23.66663365 137.22289134 22.93614481 139.7705488 22.25 142.5 C21.63925553 144.34904155 21.01920834 146.19503237 20.390625 148.03808594 C19.75741756 150.01922623 19.12732641 152.00136464 18.5 153.984375 C17.80241967 156.15766007 17.1044928 158.33083393 16.40625 160.50390625 C15.32284299 163.88856824 14.24236087 167.274086 13.16796875 170.66162109 C12.12028908 173.95943096 11.06099467 177.25332882 10 180.546875 C9.68321289 181.55635193 9.36642578 182.56582886 9.04003906 183.605896 C5.18922857 195.49598052 5.18922857 195.49598052 -0.5 199.375 C-5.84877053 201.22649749 -10.40216847 201.45612868 -15.5 199 C-22.69399841 194.12941011 -24.39417026 183.67223829 -26.7265625 175.828125 C-27.48627203 173.36526474 -28.24805337 170.90304278 -29.01171875 168.44140625 C-30.20444018 164.58741783 -31.38486275 160.73077595 -32.52490234 156.86083984 C-33.63216193 153.10695193 -34.80321444 149.37440244 -35.9765625 145.640625 C-36.30612946 144.48330872 -36.63569641 143.32599243 -36.97525024 142.13360596 C-38.77407657 136.28807939 -38.77407657 136.28807939 -42.87182617 131.99401855 C-45.47289134 130.91663365 -48.0205488 130.18614481 -50.75 129.5 C-52.59904155 128.88925553 -54.44503237 128.26920834 -56.28808594 127.640625 C-58.26922623 127.00741756 -60.25136464 126.37732641 -62.234375 125.75 C-64.40766007 125.05241967 -66.58083393 124.3544928 -68.75390625 123.65625 C-72.13856824 122.57284299 -75.524086 121.49236087 -78.91162109 120.41796875 C-82.20943096 119.37028908 -85.50332882 118.31099467 -88.796875 117.25 C-89.80635193 116.93321289 -90.81582886 116.61642578 -91.855896 116.29003906 C-98.3655826 114.18176393 -103.81787628 112.39818558 -107.75 106.5 C-108.44638913 100.53304474 -109.04247808 94.58464207 -105.8125 89.375 C-98.26158723 84.75199218 -90.0780606 82.24568775 -81.63671875 79.7421875 C-79.31380435 79.02814885 -76.99155676 78.31193796 -74.66992188 77.59375 C-71.04340381 76.47494369 -67.41523591 75.36845357 -63.77416992 74.29785156 C-60.23686452 73.25325259 -56.71829255 72.15892457 -53.19921875 71.0546875 C-52.11066086 70.74699432 -51.02210297 70.43930115 -49.90055847 70.12228394 C-44.32526442 68.37772244 -44.32526442 68.37772244 -40.28652954 64.39160156 C-39.2088035 61.78817688 -38.45738799 59.22657692 -37.75 56.5 C-37.13778291 54.65144551 -36.51778767 52.80545155 -35.890625 50.96191406 C-35.25741756 48.98077377 -34.62732641 46.99863536 -34 45.015625 C-33.30241967 42.84233993 -32.6044928 40.66916607 -31.90625 38.49609375 C-30.82284299 35.11143176 -29.74236087 31.725914 -28.66796875 28.33837891 C-27.62028908 25.04056904 -26.56099467 21.74667118 -25.5 18.453125 C-25.18321289 17.44364807 -24.86642578 16.43417114 -24.54003906 15.394104 C-20.68922857 3.50401948 -20.68922857 3.50401948 -15 -0.375 C-9.65122947 -2.22649749 -5.09783153 -2.45612868 0 0 Z M-8.75 26.5 C-8.95631546 27.14479813 -9.16263092 27.78959625 -9.37519836 28.45393372 C-11.52191355 35.15687005 -13.68139866 41.85559347 -15.84838867 48.55200195 C-16.65571949 51.05256834 -17.45977434 53.55419484 -18.26049805 56.05688477 C-19.41118067 59.65143203 -20.57354255 63.24201774 -21.73828125 66.83203125 C-22.09465164 67.95398392 -22.45102203 69.07593658 -22.81819153 70.23188782 C-23.15831772 71.27274033 -23.49844391 72.31359283 -23.84887695 73.38598633 C-24.14421829 74.30309891 -24.43955963 75.22021149 -24.74385071 76.16511536 C-26.2259274 79.60444403 -27.64555597 81.0240726 -31.08488464 82.50614929 C-32.00199722 82.80149063 -32.9191098 83.09683197 -33.86401367 83.40112305 C-34.90486618 83.74124924 -35.94571869 84.08137543 -37.01811218 84.43180847 C-38.14006485 84.78817886 -39.26201752 85.14454926 -40.41796875 85.51171875 C-41.56791824 85.88480667 -42.71786774 86.25789459 -43.90266418 86.64228821 C-47.57823397 87.83260894 -51.25774755 89.01018075 -54.9375 90.1875 C-57.4293065 90.99200261 -59.92084656 91.79733099 -62.41210938 92.60351562 C-68.5216795 94.57860481 -74.63453621 96.54324071 -80.75 98.5 C-80.75 99.16 -80.75 99.82 -80.75 100.5 C-80.10520187 100.70631546 -79.46040375 100.91263092 -78.79606628 101.12519836 C-72.09312995 103.27191355 -65.39440653 105.43139866 -58.69799805 107.59838867 C-56.19743166 108.40571949 -53.69580516 109.20977434 -51.19311523 110.01049805 C-47.59856797 111.16118067 -44.00798226 112.32354255 -40.41796875 113.48828125 C-39.29601608 113.84465164 -38.17406342 114.20102203 -37.01811218 114.56819153 C-35.97725967 114.90831772 -34.93640717 115.24844391 -33.86401367 115.59887695 C-32.4883448 116.04188896 -32.4883448 116.04188896 -31.08488464 116.49385071 C-27.64555597 117.9759274 -26.2259274 119.39555597 -24.74385071 122.83488464 C-24.44850937 123.75199722 -24.15316803 124.6691098 -23.84887695 125.61401367 C-23.50875076 126.65486618 -23.16862457 127.69571869 -22.81819153 128.76811218 C-22.46182114 129.89006485 -22.10545074 131.01201752 -21.73828125 132.16796875 C-21.36519333 133.31791824 -20.99210541 134.46786774 -20.60771179 135.65266418 C-19.41739106 139.32823397 -18.23981925 143.00774755 -17.0625 146.6875 C-16.25799739 149.1793065 -15.45266901 151.67084656 -14.64648438 154.16210938 C-12.67139519 160.2716795 -10.70675929 166.38453621 -8.75 172.5 C-8.09 172.5 -7.43 172.5 -6.75 172.5 C-6.54368454 171.85520187 -6.33736908 171.21040375 -6.12480164 170.54606628 C-3.97808645 163.84312995 -1.81860134 157.14440653 0.34838867 150.44799805 C1.15571949 147.94743166 1.95977434 145.44580516 2.76049805 142.94311523 C3.91118067 139.34856797 5.07354255 135.75798226 6.23828125 132.16796875 C6.59465164 131.04601608 6.95102203 129.92406342 7.31819153 128.76811218 C7.82838081 127.20683342 7.82838081 127.20683342 8.34887695 125.61401367 C8.64421829 124.69690109 8.93955963 123.77978851 9.24385071 122.83488464 C10.7259274 119.39555597 12.14555597 117.9759274 15.58488464 116.49385071 C16.50199722 116.19850937 17.4191098 115.90316803 18.36401367 115.59887695 C19.92529243 115.08868767 19.92529243 115.08868767 21.51811218 114.56819153 C23.20104118 114.03363594 23.20104118 114.03363594 24.91796875 113.48828125 C26.06791824 113.11519333 27.21786774 112.74210541 28.40266418 112.35771179 C32.07823397 111.16739106 35.75774755 109.98981925 39.4375 108.8125 C41.9293065 108.00799739 44.42084656 107.20266901 46.91210938 106.39648438 C53.0216795 104.42139519 59.13453621 102.45675929 65.25 100.5 C65.25 99.84 65.25 99.18 65.25 98.5 C64.60520187 98.29368454 63.96040375 98.08736908 63.29606628 97.87480164 C56.59312995 95.72808645 49.89440653 93.56860134 43.19799805 91.40161133 C40.69743166 90.59428051 38.19580516 89.79022566 35.69311523 88.98950195 C32.09856797 87.83881933 28.50798226 86.67645745 24.91796875 85.51171875 C23.79601608 85.15534836 22.67406342 84.79897797 21.51811218 84.43180847 C20.47725967 84.09168228 19.43640717 83.75155609 18.36401367 83.40112305 C17.44690109 83.10578171 16.52978851 82.81044037 15.58488464 82.50614929 C12.14555597 81.0240726 10.7259274 79.60444403 9.24385071 76.16511536 C8.8008387 74.78944649 8.8008387 74.78944649 8.34887695 73.38598633 C7.83868767 71.82470757 7.83868767 71.82470757 7.31819153 70.23188782 C6.78363594 68.54895882 6.78363594 68.54895882 6.23828125 66.83203125 C5.86519333 65.68208176 5.49210541 64.53213226 5.10771179 63.34733582 C3.91739106 59.67176603 2.73981925 55.99225245 1.5625 52.3125 C0.75799739 49.8206935 -0.04733099 47.32915344 -0.85351562 44.83789062 C-2.82860481 38.7283205 -4.79324071 32.61546379 -6.75 26.5 C-7.41 26.5 -8.07 26.5 -8.75 26.5 Z " fill="#54B082" transform="translate(107.75,48.5)"/>
<path d="M0 0 C0.85464844 -0.0309375 1.70929688 -0.061875 2.58984375 -0.09375 C6.17149823 0.76629973 7.0108489 2.47617192 9.0625 5.5 C10.02565832 8.12318174 10.84040767 10.63818579 11.578125 13.3203125 C12.02871738 14.8402091 12.48057882 16.35972995 12.93359375 17.87890625 C13.62964827 20.25631368 14.31536417 22.63530051 14.97900391 25.02197266 C15.6290386 27.33930104 16.31896638 29.64163979 17.015625 31.9453125 C17.20239807 32.65785187 17.38917114 33.37039124 17.581604 34.10452271 C18.43987404 36.86285356 19.25695696 39.01014188 21.78874207 40.54974365 C23.86020907 41.34130837 25.91736901 41.94096586 28.0625 42.5 C29.22499268 42.89960937 30.38748535 43.29921875 31.58520508 43.7109375 C32.73915771 44.09507813 33.89311035 44.47921875 35.08203125 44.875 C36.36408795 45.30682981 37.64598462 45.73913497 38.92773438 46.171875 C40.91223466 46.84102392 42.89746126 47.50744072 44.88549805 48.16601562 C46.82885355 48.8108682 48.76813062 49.46689319 50.70703125 50.125 C52.42950073 50.70121094 52.42950073 50.70121094 54.18676758 51.2890625 C56.88203721 52.42400922 58.31864603 53.19278756 60.0625 55.5 C60.53125 57.83984375 60.53125 57.83984375 60.5625 60.4375 C60.5934375 61.29214844 60.624375 62.14679687 60.65625 63.02734375 C59.79620027 66.60899823 58.08632808 67.4483489 55.0625 69.5 C52.43931826 70.46315832 49.92431421 71.27790767 47.2421875 72.015625 C45.7222909 72.46621738 44.20277005 72.91807882 42.68359375 73.37109375 C40.30618632 74.06714827 37.92719949 74.75286417 35.54052734 75.41650391 C33.22319896 76.0665386 30.92086021 76.75646638 28.6171875 77.453125 C27.90464813 77.63989807 27.19210876 77.82667114 26.45797729 78.019104 C23.69852555 78.87772281 21.55211893 79.69616667 20.01028442 82.22747803 C19.21717002 84.29884017 18.6179503 86.35347721 18.0625 88.5 C17.67336426 89.65725586 17.28422852 90.81451172 16.88330078 92.00683594 C16.51188965 93.15442383 16.14047852 94.30201172 15.7578125 95.484375 C15.33555825 96.76202411 14.91235348 98.0393594 14.48828125 99.31640625 C13.83274434 101.29089722 13.18226769 103.26632752 12.54736328 105.24755859 C11.92442631 107.18606206 11.28067189 109.11657998 10.6328125 111.046875 C10.25914551 112.18995117 9.88547852 113.33302734 9.50048828 114.51074219 C7.84828657 117.94530208 6.24597712 119.44904102 3.0625 121.5 C-0.59823792 122.11012299 -2.26803642 121.90566251 -5.44799805 119.97875977 C-8.72542634 116.71547356 -9.5467478 113.7170296 -10.76953125 109.33984375 C-11.26285862 107.72566269 -11.75702489 106.11173781 -12.25195312 104.49804688 C-13.00747027 101.96449524 -13.75252034 99.42871622 -14.48168945 96.88745117 C-15.19563951 94.42474064 -15.9486052 91.97666114 -16.70703125 89.52734375 C-16.91254105 88.76791977 -17.11805084 88.00849579 -17.32978821 87.22605896 C-18.60462903 83.17377784 -18.60462903 83.17377784 -21.67617798 80.41870117 C-23.74477717 79.6262848 -25.79018387 79.04038058 -27.9375 78.5 C-29.09475586 78.11086426 -30.25201172 77.72172852 -31.44433594 77.32080078 C-32.59192383 76.94938965 -33.73951172 76.57797852 -34.921875 76.1953125 C-36.19952411 75.77305825 -37.4768594 75.34985348 -38.75390625 74.92578125 C-40.72839722 74.27024434 -42.70382752 73.61976769 -44.68505859 72.98486328 C-46.62356206 72.36192631 -48.55407998 71.71817189 -50.484375 71.0703125 C-51.62745117 70.69664551 -52.77052734 70.32297852 -53.94824219 69.93798828 C-57.38280208 68.28578657 -58.88654102 66.68347712 -60.9375 63.5 C-61.54762299 59.83926208 -61.34316251 58.16946358 -59.41625977 54.98950195 C-56.15297356 51.71207366 -53.1545296 50.8907522 -48.77734375 49.66796875 C-47.16316269 49.17464138 -45.54923781 48.68047511 -43.93554688 48.18554688 C-41.40199524 47.43002973 -38.86621622 46.68497966 -36.32495117 45.95581055 C-33.86224064 45.24186049 -31.41416114 44.4888948 -28.96484375 43.73046875 C-28.20541977 43.52495895 -27.44599579 43.31944916 -26.66355896 43.10771179 C-22.61193571 41.83380933 -22.61193571 41.83380933 -19.8586731 38.76255798 C-19.06782975 36.69392158 -18.48149074 34.64587186 -17.9375 32.5 C-17.53789062 31.33750732 -17.13828125 30.17501465 -16.7265625 28.97729492 C-16.15035156 27.24636597 -16.15035156 27.24636597 -15.5625 25.48046875 C-15.13067019 24.19841205 -14.69836503 22.91651538 -14.265625 21.63476562 C-13.59647608 19.65026534 -12.93005928 17.66503874 -12.27148438 15.67700195 C-11.6266318 13.73364645 -10.97060681 11.79436938 -10.3125 9.85546875 C-9.73628906 8.13299927 -9.73628906 8.13299927 -9.1484375 6.37573242 C-7.09344781 1.49554621 -5.28583025 0.06358894 0 0 Z " fill="#8BE3C3" transform="translate(195.9375,-0.5)"/>
<path d="M0 0 C6.14862496 3.31767486 7.30220988 9.38432708 9.3125 15.625 C9.67150391 16.6871875 10.03050781 17.749375 10.40039062 18.84375 C13 26.62772321 13 26.62772321 13 29 C13.94746094 29.23783203 13.94746094 29.23783203 14.9140625 29.48046875 C20.48062833 30.93226762 25.97742802 32.56259914 31.4375 34.375 C32.59121094 34.75398438 33.74492187 35.13296875 34.93359375 35.5234375 C38.41074672 37.19778632 39.92786908 38.77446609 42 42 C42.58521997 45.51131982 42.38534053 47.28585093 40.6953125 50.41796875 C36.57890811 54.36136484 31.73057532 55.58732384 26.375 57.3125 C25.3128125 57.67150391 24.250625 58.03050781 23.15625 58.40039062 C15.37227679 61 15.37227679 61 13 61 C12.84144531 61.63164062 12.68289062 62.26328125 12.51953125 62.9140625 C6.51848953 85.9235816 6.51848953 85.9235816 2 89 C-0.33984375 89.46875 -0.33984375 89.46875 -2.9375 89.5 C-3.79214844 89.5309375 -4.64679688 89.561875 -5.52734375 89.59375 C-8 89 -8 89 -10.08203125 87.13671875 C-12.76006524 82.75696051 -14.20907027 78.18990633 -15.75 73.3125 C-16.22373047 71.86907227 -16.22373047 71.86907227 -16.70703125 70.39648438 C-19 63.32401583 -19 63.32401583 -19 61 C-19.94746094 60.76216797 -19.94746094 60.76216797 -20.9140625 60.51953125 C-26.48062833 59.06773238 -31.97742802 57.43740086 -37.4375 55.625 C-39.16806641 55.05652344 -39.16806641 55.05652344 -40.93359375 54.4765625 C-44.41074672 52.80221368 -45.92786908 51.22553391 -48 48 C-48.58521997 44.48868018 -48.38534053 42.71414907 -46.6953125 39.58203125 C-42.57890811 35.63863516 -37.73057532 34.41267616 -32.375 32.6875 C-31.3128125 32.32849609 -30.250625 31.96949219 -29.15625 31.59960938 C-21.37227679 29 -21.37227679 29 -19 29 C-18.76216797 28.05253906 -18.76216797 28.05253906 -18.51953125 27.0859375 C-17.06773238 21.51937167 -15.43740086 16.02257198 -13.625 10.5625 C-13.05652344 8.83193359 -13.05652344 8.83193359 -12.4765625 7.06640625 C-9.79417358 1.49583666 -6.19294323 -1.03215721 0 0 Z " fill="#5ECE97" transform="translate(203,167)"/>
<path d="M0 0 C2.69990662 1.79993774 4.5418865 3.083773 6 6 C6.06996014 7.70702735 6.08440154 9.41668003 6.0625 11.125 C6.05347656 12.03507812 6.04445312 12.94515625 6.03515625 13.8828125 C6.02355469 14.58148438 6.01195312 15.28015625 6 16 C6.99580078 15.93039063 6.99580078 15.93039063 8.01171875 15.859375 C15.28473679 15.56208375 15.28473679 15.56208375 19.0625 17.875 C21.36568494 20.40107381 21.9346116 21.41150441 22.3125 24.8125 C21.92835642 28.7307645 20.70743683 30.21293267 18 33 C15.47524538 34.26237731 13.68799534 34.09856404 10.875 34.0625 C9.96492188 34.05347656 9.05484375 34.04445312 8.1171875 34.03515625 C7.41851562 34.02355469 6.71984375 34.01195312 6 34 C6.04640625 34.66386719 6.0928125 35.32773438 6.140625 36.01171875 C6.43791625 43.28473679 6.43791625 43.28473679 4.125 47.0625 C1.59892619 49.36568494 0.58849559 49.9346116 -2.8125 50.3125 C-6.7307645 49.92835642 -8.21293267 48.70743683 -11 46 C-12.26237731 43.47524538 -12.09856404 41.68799534 -12.0625 38.875 C-12.05347656 37.96492188 -12.04445313 37.05484375 -12.03515625 36.1171875 C-12.02355469 35.41851562 -12.01195312 34.71984375 -12 34 C-12.66386719 34.04640625 -13.32773437 34.0928125 -14.01171875 34.140625 C-21.28473679 34.43791625 -21.28473679 34.43791625 -25.0625 32.125 C-27.36568494 29.59892619 -27.9346116 28.58849559 -28.3125 25.1875 C-27.92835642 21.2692355 -26.70743683 19.78706733 -24 17 C-21.47524538 15.73762269 -19.68799534 15.90143596 -16.875 15.9375 C-15.96492188 15.94652344 -15.05484375 15.95554687 -14.1171875 15.96484375 C-13.41851562 15.97644531 -12.71984375 15.98804688 -12 16 C-12.04640625 15.33613281 -12.0928125 14.67226563 -12.140625 13.98828125 C-12.43791625 6.71526321 -12.43791625 6.71526321 -10.125 2.9375 C-6.72981293 -0.15811174 -4.56438332 -0.44748856 0 0 Z " fill="#7BDBB6" transform="translate(43,35)"/>
</svg>
